<svg id="Camada_1" data-name="Camada 1" xmlns="http://www.w3.org/2000/svg" viewBox="0 0 212.56635 242.45349"><defs><style>.cls-1{fill:#74638a;}.cls-2{fill:#000100;}.cls-3{fill:#cbc5e3;}</style></defs><path class="cls-1" d="M148.23183,235.69685l-8.31937-3.58514.22982-.41368a84.598,84.598,0,0,0,7.81377-28.865c.96523-9.97406-2.7578-18.24746-10.43369-23.53325,5.01,9.23864,6.251,17.97168,3.67707,26.65875l-.32175,1.10312-.5056-1.0112c-.82733-1.56275-1.60871-3.17147-2.3901-4.78019-1.70065-3.44725-3.49322-6.98644-5.42367-10.38772a127.05458,127.05458,0,0,0-25.096-31.30105,25.90322,25.90322,0,0,1-7.67588-11.44488c-.64349-2.06835-1.195-4.22863-1.74661-6.34293-.36771-1.42487-.73542-2.89569-1.14909-4.32056a21.15639,21.15639,0,0,0-.8733-2.3901c-.18385,1.93047-.22981,3.769-.22981,5.56157v1.05715c-.18386,11.62873-4.22863,19.85618-12.41011,25.18792-1.287.82733-2.574,1.79257-3.769,2.71183-1.10311.82734-2.29816,1.70065-3.49321,2.528a49.93451,49.93451,0,0,0-15.99525,17.42011c-1.42487,2.528-3.12551,4.964-4.73423,7.30817l-.27578.3677a17.98076,17.98076,0,0,1-1.83854,2.20624l-.13789.13788c1.14908.046,2.29817.09193,3.40129.13789a44.80272,44.80272,0,0,1,9.28459.91926l.27579.046c9.83615,2.34413,19.99406,4.78019,30.38177,4.41249,5.01-.18386,10.20387-.36771,14.98406-2.80377,1.79257-.91927,2.34413-1.83854,1.97642-3.2634-1.93047-7.81377-6.0212-15.076-12.91571-22.88975a2.49468,2.49468,0,0,0-2.11432-.45963A54.951,54.951,0,0,0,80.298,188.49243a21.98692,21.98692,0,0,0,13.19149,2.20624l-5.01-3.95286.45964-.3677c.59752-.5056,1.195-.96523,1.74661-1.47083,1.56275-1.287,3.03358-2.528,4.59633-3.6311a2.83685,2.83685,0,0,1,2.94165.22981c3.35533,3.86092,5.60753,8.59516,7.26222,15.35176a1.98628,1.98628,0,0,1-.22982,1.7466,2.13153,2.13153,0,0,1-1.79257.59752c-1.60872-.046-3.03358-.046-4.32055,0-8.825.41367-17.64994-1.60871-26.93453-6.251a20.19911,20.19911,0,0,1-2.57395-1.65468c-.41366-.27578-.82734-.59752-1.287-.91927l-.41367-.27578.32174-.3677c.64349-.78138,1.195-1.60872,1.79257-2.3901a28.78,28.78,0,0,1,3.95285-4.78019c3.49322-3.21743,7.21625-6.34294,10.80139-9.37652,1.42487-1.19505,2.89569-2.436,4.32055-3.6311.82735-.68945,1.70065-1.3789,2.528-2.06835a38.39033,38.39033,0,0,0,5.37771-4.82616,3.26177,3.26177,0,0,1,2.16028-1.42486c.8733-.046,1.56275.59751,2.39009,1.3789,8.18148,7.7678,14.52442,16.82259,19.16672,23.855a46.01978,46.01978,0,0,1,6.75662,14.66231,6.26271,6.26271,0,0,1-1.7466,6.15908c-7.76781,8.779-18.15553,10.34176-28.2215,10.70946A78.69662,78.69662,0,0,1,80.7576,216.622a186.88962,186.88962,0,0,1-18.70708-4.45845c-1.33294-.3677-2.66588-.78139-3.99882-1.19505-6.48083-1.97642-13.19148-3.99882-20.68351-1.8845l-1.287.3677.78137-1.05715c.82735-1.10312,1.60872-2.16029,2.3901-3.17147,1.60871-2.16029,3.17147-4.18267,4.50441-6.297,1.287-2.06835,2.43606-4.22863,3.58514-6.34294a94.79153,94.79153,0,0,1,5.056-8.54918,108.97665,108.97665,0,0,1,22.38415-24.0848c4.96405-3.90689,8.54919-9.14671,10.98524-16.04121a15.09368,15.09368,0,0,0,.73542-9.14671c-2.7578,8.59516-7.95166,15.53561-15.90332,21.18912C61.22317,162.615,52.72,171.21018,43.849,182.97678A282.618,282.618,0,0,0,25.5556,210.9225l-.27577.5056L17.32816,204.074l.27578-.32175c4.04478-4.55037,8.08956-9.23863,11.99644-13.743l3.63111-4.18267a6.40155,6.40155,0,0,0,.91926-1.65468c.09193-.13788.1379-.32175.22982-.45963-1.8845.96523-3.723,2.02238-5.5156,3.07955-5.42368,3.07955-10.98524,6.297-17.46608,7.492l-1.287.22982.8733-1.0112c2.84973-3.30937,5.83735-6.52681,8.91689-9.56038l2.34413-2.34413c4.50441-4.5044,9.19268-9.14671,13.97287-13.51322a45.33444,45.33444,0,0,1,5.88331-4.36652c.91926-.59752,1.83853-1.19505,2.71184-1.83854l.3677-.27578.87331,1.10312-.046.22981a21.891,21.891,0,0,1-7.12432,11.307,11.01332,11.01332,0,0,0,6.11312-3.17147,47.64709,47.64709,0,0,0,3.99881-5.10193c.82735-1.10312,1.65469-2.2522,2.528-3.35532.45963-.55157.91927-1.14909,1.3789-1.7466a55.91058,55.91058,0,0,1,5.79139-6.57276c2.34413-2.11432,4.87211-4.1367,7.30817-6.11312,2.06835-1.65468,4.22862-3.40128,6.251-5.1479a7.52766,7.52766,0,0,0,1.65468-2.71184c.18385-.3677.36771-.78138.55156-1.19505h0c-3.17147,4.41249-7.81377,6.38891-12.31818,8.31937a52.27543,52.27543,0,0,0-6.66469,3.21744l-1.05716.64348.41367-1.19505c3.53918-10.34175,9.74423-17.19029,19.02883-20.82139l-.13789-.22982c-.96524.27578-1.97643.59752-2.94166.8733-2.34413.68945-4.78018,1.3789-7.12432,2.20624-1.60871.55156-3.2634,1.14908-4.82615,1.7466-7.95166,2.84973-16.1791,5.83735-24.9581,6.251l-1.10313.046L46.377,124.78717l.27578.046A64.18761,64.18761,0,0,0,57.54611,126.304c9.37652.55157,18.98286-1.10312,31.25508-5.37772a17.24522,17.24522,0,0,1,8.50322-.64348,22.9797,22.9797,0,0,1,13.743,8.733,21.1909,21.1909,0,0,0,3.49322,3.21744c.45963.3677.96523.78138,1.47083,1.19505l.09194-.046c-.45964-.82733-.87331-1.65468-1.287-2.482-1.05715-2.02239-2.16029-4.13671-3.35532-6.15909l-.13789-.22982c-2.89568-5.01-5.92927-10.24982-10.5256-14.11076a12.5927,12.5927,0,0,1-2.528-3.17146c-.59752-.96524-1.19505-2.02239-1.74661-2.98762-.82734-1.51679-1.70064-3.03359-2.66587-4.45845a23.38882,23.38882,0,0,0-2.84973-3.17147c-.59753-.59752-1.195-1.195-1.74661-1.83853a9.05129,9.05129,0,0,1-2.06835-9.60634,20.8447,20.8447,0,0,0,.64348-3.03358c0-.1379.046-.32175.046-.45964l-.82734-.36771a1.8378,1.8378,0,0,1,1.33293-1.01119l.68945-.18385-.13789.68945c-.09192.45963-.13789.96523-.22982,1.42487a15.02736,15.02736,0,0,1-.68945,3.17147,8.12008,8.12008,0,0,0,1.8845,8.68707c.55156.59752,1.14909,1.241,1.74661,1.79257a29.05815,29.05815,0,0,1,2.94166,3.30936c1.01119,1.42486,1.8845,2.98762,2.7578,4.50441.55156.96523,1.10312,1.97642,1.70064,2.94166a11.79935,11.79935,0,0,0,2.34413,2.94165c4.73422,3.99882,7.76781,9.23864,10.70946,14.34057l.13789.22982c1.195,2.02238,2.29816,4.1367,3.35532,6.20505.5056.91927.96523,1.8845,1.47083,2.80377l.18385.32175-1.287,1.0112-.27578-.27578c-.55157-.45964-1.14909-.96524-1.70065-1.42487a19.56938,19.56938,0,0,1-3.6311-3.40129c-3.67707-4.59633-8.08956-7.44607-13.19149-8.41128a16.29713,16.29713,0,0,0-7.99762.59751c-12.36414,4.32056-22.15434,5.97524-31.62279,5.42367a59.1851,59.1851,0,0,1-10.80139-1.42486L34.61041,139.12784c8.22744-.59752,16.04121-3.40128,23.5792-6.11312,1.60872-.55157,3.21744-1.14908,4.87212-1.7466,2.34413-.82734,4.78019-1.51679,7.17029-2.20624,1.10311-.32175,2.16027-.64348,3.2634-.96523l.32174-.09193,1.14908,1.7466-.55156.18385c-8.96286,3.40129-15.03,9.69827-18.61516,19.30461a56.84377,56.84377,0,0,1,5.65349-2.61992c4.73423-2.02238,9.19267-3.90688,12.22626-8.41129l.27578-.45963L75.288,138.944l-.18386.32175c-.22981.45963-.45963.96523-.68945,1.42487a8.906,8.906,0,0,1-1.8845,3.03358c-2.02238,1.79257-4.18266,3.53919-6.297,5.19386-2.43606,1.93046-4.91808,3.95285-7.26222,6.06716a54.76444,54.76444,0,0,0-5.69945,6.48084c-.45963.59752-.91927,1.14908-1.3789,1.7466-.8733,1.05715-1.70064,2.20624-2.482,3.30937a54.28925,54.28925,0,0,1-4.09074,5.1479c-1.93046,2.06835-4.59634,3.2634-8.22744,3.67707l-1.56276.18385,1.19505-1.0112c4.36652-3.6311,6.8945-7.30817,7.99763-11.62872l-.046-.046c-.78137.55157-1.60871,1.10312-2.39009,1.60872a43.758,43.758,0,0,0-5.79138,4.27459c-4.78019,4.36651-9.42249,9.00882-13.9269,13.46725l-2.34413,2.34414c-2.7578,2.71183-5.42368,5.56157-7.99762,8.50322,5.79138-1.33293,10.89331-4.27459,15.85735-7.12432,1.93046-1.10312,3.95285-2.2522,5.92928-3.2634l.27578-.13789.91927.82734-.18386.32175c-.13789.27578-.27578.55156-.41367.8733a6.53859,6.53859,0,0,1-1.10312,1.8845l-3.63111,4.18267c-3.815,4.41248-7.76781,8.96285-11.72065,13.4213l6.43487,5.97524a281.98019,281.98019,0,0,1,18.0636-27.532c8.91689-11.85854,17.46607-20.49966,26.93453-27.25626,8.18148-5.83736,13.4213-13.0536,15.99525-22.06242l.36771-1.287.5056,1.241c1.70064,4.27459.82734,7.99762-.22982,11.12314-2.482,7.03239-6.15909,12.41011-11.261,16.45488a106.10648,106.10648,0,0,0-22.15434,23.90094c-1.83853,2.71184-3.44725,5.65349-4.964,8.45726-1.14909,2.11432-2.34413,4.27458-3.63111,6.3889a77.7208,77.7208,0,0,1-4.55037,6.34294c-.5056.68945-1.05716,1.3789-1.60872,2.11432,7.21624-1.65469,13.65112.32175,19.90213,2.20623,1.287.41367,2.66588.82734,3.95286,1.195a185.227,185.227,0,0,0,18.61516,4.45845,79.78381,79.78381,0,0,0,16.59277,1.33294c9.83616-.3677,19.99406-1.8845,27.578-10.43369,1.60871-1.83853,2.02238-3.2634,1.51678-5.33175a45.25271,45.25271,0,0,0-6.61872-14.38653c-4.59633-6.98643-10.93927-15.99524-19.02883-23.67113-.73541-.73541-1.241-1.14908-1.70064-1.14908q-.55157,0-1.51679,1.10312a42.65132,42.65132,0,0,1-5.46964,4.91808c-.82734.64349-1.70064,1.33294-2.482,2.02239-1.42486,1.241-2.89569,2.436-4.32055,3.6311-3.58514,3.03358-7.30817,6.11312-10.80139,9.33056a29.34886,29.34886,0,0,0-3.815,4.6423,21.08339,21.08339,0,0,1-1.51679,2.02238c.32174.22982.59752.41367.91927.64349a18.06122,18.06122,0,0,0,2.43606,1.56275c9.1467,4.55037,17.83378,6.57275,26.52085,6.15909,1.33294-.046,2.7578-.046,4.41249,0,.55156,0,.91926-.09194,1.05716-.27579a1.161,1.161,0,0,0,.046-.96523c-1.65468-6.61872-3.815-11.261-7.07835-14.98406a2.15577,2.15577,0,0,0-1.70065-.09193c-1.56275,1.10312-2.98761,2.29817-4.55037,3.6311-.41366.3677-.8733.73542-1.33293,1.10312l5.79139,4.59634-1.05716.13788c-5.97524.8733-10.84736.09193-15.35177-2.43605l-.5056-.27579.41367-.41366a55.46973,55.46973,0,0,1,18.799-13.46726,3.32743,3.32743,0,0,1,3.17147.68945c6.98643,7.95165,11.16909,15.30579,13.14552,23.25746.59752,2.3901-1.0112,3.53919-2.43605,4.32055-4.964,2.528-10.47965,2.71184-15.35176,2.89569-10.52561.41367-20.72948-2.06835-30.6116-4.41249l-.27578-.046a44.95856,44.95856,0,0,0-9.10075-.8733c-1.42486-.046-2.89569-.09193-4.36652-.18385l-.91926-.046.59752-.68945c.22982-.27578.5056-.55157.78138-.8733.59752-.68945,1.241-1.3789,1.79256-2.11432l.27579-.3677c1.60872-2.34413,3.30936-4.78019,4.73422-7.2622a50.99072,50.99072,0,0,1,16.317-17.74186c1.14908-.78139,2.29817-1.65469,3.44725-2.482,1.241-.91927,2.528-1.8845,3.86092-2.7578,7.99762-5.23982,11.81258-12.96168,11.99644-24.40655v-1.05715a46.43866,46.43866,0,0,1,.5056-7.44607l.27578-1.70065.59753,1.60872c.13789.41366.32174.82733.5056,1.241a29.89941,29.89941,0,0,1,1.01119,2.84974c.41367,1.42486.78137,2.89568,1.14908,4.32055.5056,2.06835,1.05716,4.22863,1.70064,6.297a25.61882,25.61882,0,0,0,7.4001,11.07717A127.00728,127.00728,0,0,1,133.24782,190.331c1.93047,3.40129,3.723,6.98644,5.42367,10.43369.59752,1.241,1.241,2.482,1.8845,3.723,2.16028-8.50322.59752-17.1903-4.82615-26.383l.64348-.64348c9.05479,5.42367,13.46726,14.43249,12.41011,25.41773a85.86425,85.86425,0,0,1-7.72184,28.72711l6.57275,2.80376c5.14791-13.09956,9.74424-28.77307,5.23982-46.469l.82734-.3677a54.981,54.981,0,0,1,5.5156,10.38772,55.68774,55.68774,0,0,0,5.28579,10.11194l.3677-.09193-1.287-9.56038c-1.0112-7.4001-2.02238-14.84616-3.03358-22.24626-1.42487-10.20387-5.88331-19.58039-10.24983-28.68113l-.8733-1.79257.64349-.32175-.13789-.22982a23.09376,23.09376,0,0,1-4.87212-6.5268c-.13788,4.36652-.22981,8.96285-.22981,13.55919,0,5.74542,1.79256,11.53681,5.5156,17.74186.91927,1.51679,1.93047,3.07955,2.94165,4.68827.5056.78138,1.05715,1.60872,1.60872,2.482l.55156.8733-1.01119-.18385c-.41367-.046-.78139-.09194-1.14909-.13789a5.27536,5.27536,0,0,1-2.11432-.45963c-2.06835-1.10312-4.1367-2.29817-6.11312-3.44725-3.40128-1.97642-6.94047-3.99882-10.5256-5.69946-8.22744-3.95285-13.65113-10.5256-18.24746-17.00644a23.478,23.478,0,0,1-2.20624-4.27459c-.27578-.64348-.55156-1.287-.8733-1.93046l-7.35414-15.16791.73542-.55157c.41367.3677.78138.73542,1.14908,1.05715a23.21048,23.21048,0,0,1,2.16029,2.06836l6.06717,6.8945c3.03358,3.44725,6.11312,6.98644,9.23863,10.43369a65.37534,65.37534,0,0,0,6.43487,6.11312,7.70236,7.70236,0,0,0,2.20624,1.14908l.68945.27579c.27578-1.33294.55157-2.61992.82734-3.90689.68945-3.17147,1.33293-6.15909,2.02238-9.14671.68945-2.94165,1.3789-5.8833,2.06835-8.779.82734-3.49322,1.70065-7.12432,2.482-10.6635-.22982-2.71184-.41367-5.46964-.55157-8.08956-.13788-2.528-.32174-5.1479-.55156-7.7678-.13789-1.3789-.32175-2.80377-.5056-4.13671-.18385-1.3789-.41367-2.84972-.55157-4.27459l.8733-.22982c.27579.59753.55157,1.241.82734,1.83854a22.85573,22.85573,0,0,1,1.65468,4.13669c.41367,1.56276.78139,3.12551,1.19505,4.82616l.64349.046.27578,2.61992c.09193.73542.18385,1.51678.22982,2.2522.45963,1.83854,1.05715,4.27459,1.79256,6.61872a49.57262,49.57262,0,0,0,9.56038,17.32819c-4.87212-8.87092-6.15909-19.67231-6.43487-23.21149-.13789-.55157-.32175-1.10312-.5056-1.65469-.3677-1.241-.73542-2.482-1.0112-3.769-2.29817-9.92809-4.87212-20.49966-9.19267-30.6116-3.35532-7.85973-2.16029-15.85736,3.769-25.23388.27578-.41366.5056-.82734.78138-1.195,1.65468-2.528,3.2634-4.91808,2.89569-8.08955a5.18207,5.18207,0,0,0-.13789-.82734c0,.046-.046.13789-.046.18385a11.69318,11.69318,0,0,1-1.0112,3.26341,56.69659,56.69659,0,0,1-3.53919,5.14789c-.45963.59753-.91927,1.19505-1.33293,1.83853l-.22982.32175a17.17072,17.17072,0,0,1-1.65468,2.06835c-5.42367,5.56157-7.07836,12.31818-5.23982,21.281a3.95413,3.95413,0,0,1,.046.73542v1.195l-.73541-.5056c-2.66587-1.93046-4.27459-7.67588-4.87212-12.45607-.64349-5.01-.59752-11.85855,1.79257-14.75424l.55156-.64348,1.10312,3.44725c5.37772-3.03358,9.33056-7.07835,9.83616-10.1579a3.13253,3.13253,0,0,0-.59752-2.574l-1.33294.18386c-1.19505.18385-2.2522.32174-3.30936.50559-.09194,0-.22982.046-.32175.046a3.17681,3.17681,0,0,0-.82734.18385c-1.83853,1.14908-3.723,2.25221-5.56157,3.35533a150.35024,150.35024,0,0,0-13.51322,8.733A39.73309,39.73309,0,0,0,105.43994,68.758a28.99615,28.99615,0,0,0-3.99881,17.09836,15.86462,15.86462,0,0,0,1.56275,5.28579c3.17148,6.251,7.72185,14.20267,14.98406,20.13195.41366.32175.82733.68945,1.33293,1.05715.09193.09194.18385.13789.27578.22982,1.74661-3.90689,2.71184-7.30817,1.65469-11.03121-.64349-2.39009-1.241-4.87211-1.74661-7.26221-.3677-1.56275-.73541-3.21743-1.14908-4.78018-1.33293-5.46964-1.0112-10.89332-.22982-17.23626-2.29816,3.99881-2.89568,8.08955-3.40128,12.9157a25.98843,25.98843,0,0,0,2.29817,14.52443l-.73542.55156c-6.251-5.51561-8.68707-11.1691-7.72184-17.87975A35.61345,35.61345,0,0,1,120.9296,60.07089a14.499,14.499,0,0,1,1.33294-1.01119,1.70412,1.70412,0,0,1,.64348-.18385.5829.5829,0,0,0,.27578-.046l.55157-.09192v3.03358c0,1.7466.046,3.53917,0,5.28578a88.94139,88.94139,0,0,0,4.73422,29.83023c3.35532,10.43368,2.3901,21.09717-3.03358,33.59921l-.27579.68945-.45963-.59751c-.5056-.64349-1.05715-1.241-1.56275-1.8845-1.10312-1.33294-2.16029-2.61992-3.2634-3.86092-1.93047-2.20624-3.95286-4.41249-5.88331-6.57276-3.769-4.18267-7.67588-8.45725-11.353-12.82377a73.94064,73.94064,0,0,1-5.65349-7.99762c-.5056-.82735-1.05716-1.60872-1.56275-2.43606-4.87212-7.35414-3.53918-21.8326,2.61991-28.68114a79.48183,79.48183,0,0,1,18.10957-14.84617,50.82181,50.82181,0,0,0,8.36533-6.75661c1.14909-1.05716,2.29817-2.16028,3.49322-3.17147a14.64827,14.64827,0,0,0,1.19505-1.19505,8.67887,8.67887,0,0,1,.91927-.91927c3.07955-2.94165,4.09073-3.03358,7.81377-1.05716a3.97656,3.97656,0,0,0,.78138.32175,8.382,8.382,0,0,0-3.03358-3.17148c-3.769-2.57394-10.43369-4.6423-14.84616-3.723a2.63485,2.63485,0,0,0,.18385.64349c1.3789,2.06835.18385,3.35533-1.05715,4.22863-1.195.8733-2.34414,1.88449-3.58514,2.89569-.41367.32174-.78138.68945-1.19505,1.01119l5.69945,3.58515-1.97642.22981c-4.36651.45964-8.87092.96523-13.32937-1.79257l-.5056-.32174.41367-.41367c.5056-.5056,1.0112-1.05716,1.51678-1.51679,1.33294-1.37891,2.61992-2.66588,3.815-3.99882a2.87308,2.87308,0,0,0,.41366-.91926c0-.046.046-.09193.046-.13789a.6532.6532,0,0,0-.27578-.09193,3.50816,3.50816,0,0,0-.96524-.27578A83.43565,83.43565,0,0,0,94.5926,45.73034a110.59741,110.59741,0,0,0,17.6959,3.6311l.046.91927c-9.83615,2.61991-14.89212,10.20386-19.25864,17.78782l-.82734-.36771c.09192-.22982.13789-.5056.22981-.73542.18385-.5056.32174-1.05715.5056-1.60871l.13789-.55156a16.693,16.693,0,0,0,.45964-2.06835c.046-.59753.09192-1.14909.18385-1.74661a44.67326,44.67326,0,0,0,.36771-6.57276c-.046-1.5168-1.14909-2.43606-3.21744-2.66588-3.95285-.45963-7.12432.91927-10.6635,4.68826-2.02238,2.11432-4.09073,4.22863-6.11312,6.297q-2.482,2.482-4.964,5.10193c.18385-.09192.36771-.22981.55156-.32174,2.482-1.47082,5.056-2.98762,7.62992-4.41248,2.57395-1.3789,5.10194-2.66588,7.81377-4.04478,1.14909-.59752,2.34414-1.19505,3.49322-1.79257l.5056-.22981.13789.5056c.09193.32174.18385.5056.22982.68945.09192.32174.18385.55155,0,.78137-2.61991,3.07955-3.769,6.84854-3.6311,12.31818a57.47117,57.47117,0,0,1-.41367,8.31937,9.971,9.971,0,0,1-1.83854,4.68826l1.60872,2.29817-.73542.5056L82.50426,84.2936l.22982-.27579a8.53262,8.53262,0,0,0,1.83853-4.50441,44.69583,44.69583,0,0,0,.41367-8.13551c-.09193-3.769.27578-8.64111,3.723-12.77782v-.046c0-.046-.046-.13789-.046-.18385l-3.03359,1.51679C82.91793,61.22,80.38994,62.507,77.862,63.93183c-2.57395,1.42486-5.1479,2.89569-7.62992,4.36652-1.10312.64348-2.20625,1.287-3.30936,1.97642l-.55156-.68945c2.39009-2.528,4.82615-5.056,7.21624-7.44606,2.02239-2.06835,4.09074-4.18267,6.11313-6.297,2.528-2.66588,6.06716-5.60753,11.44488-4.964,3.2634.41366,3.99881,2.16027,4.04477,3.58514a64.05242,64.05242,0,0,1-.36771,6.66469c-.046.59752-.13789,1.14908-.18385,1.7466a15.76668,15.76668,0,0,1-.27578,1.56276c3.769-6.06717,8.36533-11.72066,15.90333-14.4325a104.52905,104.52905,0,0,1-16.54681-3.6311l-.78138-.22982.59753-.55156a88.5912,88.5912,0,0,1,16.271-11.49084,2.026,2.026,0,0,1,1.7466.22982,5.57607,5.57607,0,0,0,.64349.22982l.5056.13789-.18385.45963a2.24164,2.24164,0,0,1-.18385.5056,3.3049,3.3049,0,0,1-.59752,1.287c-1.241,1.33294-2.528,2.61991-3.86092,3.99881l-1.10312,1.10313c3.81495,2.16027,7.62992,1.88449,11.62873,1.47082l-4.55037-2.84973.5056-.41367c.59751-.45963,1.14908-.96523,1.65468-1.42486,1.241-1.05716,2.3901-2.02239,3.6311-2.94166,1.42487-1.05715,1.65469-1.79257.82734-2.98761a2.87875,2.87875,0,0,1-.32175-1.0112c-.046-.13789-.046-.22981-.09194-.3677l-.13788-.45964.45963-.13789c4.68827-1.241,11.99644.96523,16.04121,3.723,2.20624,1.51679,3.44726,3.07955,3.63111,4.59634l.09193.73541-.68945-.27578a2.59113,2.59113,0,0,0-.55157-.18385,12.74338,12.74338,0,0,1-1.195-.45964c-3.35532-1.83853-3.95285-1.74661-6.71065.87331l-.8733.8733a15.80722,15.80722,0,0,1-1.241,1.241c-1.14908,1.01119-2.34413,2.11432-3.44725,3.12551a53.14835,53.14835,0,0,1-8.50322,6.89451,77.74731,77.74731,0,0,0-17.92571,14.6623c-5.83735,6.43487-7.12432,20.59159-2.528,27.53205.55156.78138,1.05716,1.60872,1.56275,2.43606a84.48346,84.48346,0,0,0,5.56157,7.9057c3.67707,4.32055,7.584,8.6411,11.307,12.77781,1.93047,2.16028,3.95285,4.36652,5.88331,6.57275,1.10312,1.287,2.16028,2.528,3.2634,3.90689.3677.41366.68945.8733,1.05715,1.287,5.056-11.95048,5.92927-22.2003,2.71184-32.22032a90.8474,90.8474,0,0,1-4.78019-30.152c.046-1.74661.046-3.44725,0-5.23982V59.56529h-.046a10.7718,10.7718,0,0,0-1.241.91926,34.53633,34.53633,0,0,0-12.04241,21.69471c-.8733,5.74542,1.0112,10.75542,5.79139,15.53561a26.90966,26.90966,0,0,1-1.47084-12.96166c.45964-4.45845,1.10312-9.974,4.68827-15.076l.82734.32174c-.91927,7.12432-1.47084,13.05359-.046,18.89094.41367,1.60872.78138,3.21744,1.14908,4.78019.55157,2.39009,1.10312,4.82615,1.74661,7.21624,1.14908,4.18267.046,7.9057-1.97642,12.1803l-.22982.5056-.45963-.3677c-.27579-.22982-.5056-.41367-.73542-.59752a16.88045,16.88045,0,0,1-1.33293-1.05715c-7.40011-6.0212-11.99644-14.11075-15.21388-20.4537a16.70455,16.70455,0,0,1-1.65468-5.60752,29.62025,29.62025,0,0,1,4.09073-17.604A40.34061,40.34061,0,0,1,115.8736,55.42861a137.11561,137.11561,0,0,1,13.60516-8.779c1.83854-1.10312,3.723-2.20624,5.56157-3.35532a2.90663,2.90663,0,0,1,1.195-.32174c.09193,0,.18385-.046.27578-.046,1.05716-.18385,2.11432-.32174,3.30937-.50559l1.83854-.27578.18385.18385a3.98748,3.98748,0,0,1,.96523,3.49322c-.59752,3.49321-4.82615,7.81377-10.75542,11.07717l-.5056.27578-.91927-2.80377c-1.3789,2.528-1.83854,7.67588-1.10312,13.28341.64349,4.96405,2.06835,9.14671,3.723,11.07717-1.79257-9.05478,0-16.22506,5.5156-21.87856a22.74881,22.74881,0,0,0,1.56275-1.97642l.22982-.32175c.45963-.59752.8733-1.241,1.33293-1.83853,1.19505-1.60872,2.436-3.30936,3.49322-5.056a9.49582,9.49582,0,0,0,.91927-2.98762c.09193-.50559.18385-1.01119.32175-1.51679l.22981-.91927.55157.78138a4.40742,4.40742,0,0,1,.82733,2.39009c.36771,3.49322-1.3789,6.11313-3.07955,8.68707-.27578.41367-.5056.78138-.78138,1.195-5.74542,9.10075-6.94047,16.82259-3.67707,24.36058,4.36652,10.15791,6.98644,20.77544,9.23864,30.74949.27578,1.241.64348,2.482,1.0112,3.67707.18385.55157.32175,1.14909.5056,1.70065v.09194c.32175,3.90688,1.8845,17.28222,8.59515,26.42893h0a.14239.14239,0,0,0,.09194.046h0l-.45964.78139h0a4.27419,4.27419,0,0,1-1.0112-.73542,49.87829,49.87829,0,0,1-12.13432-20.26984c-.78138-2.39011-1.3789-4.87212-1.83854-6.71066v-.046c-.09193-.78139-.13788-1.51679-.22981-2.29817-.046-.32175-.046-.59752-.09194-.91927h-.41366c-.55157-2.3901-1.0112-4.36652-1.56275-6.43487a15.66657,15.66657,0,0,0-1.241-3.17147c.046.45964.13788.91927.18385,1.33294.18385,1.3789.41367,2.80376.5056,4.18266.22982,2.574.3677,5.23982.55157,7.76781.18385,2.66587.32174,5.42367.55156,8.13552v.18386c-.82733,3.58514-1.65468,7.21626-2.528,10.75543-.68945,2.89568-1.3789,5.83735-2.06835,8.779-.68945,2.98762-1.33294,5.97524-1.97642,9.10074-.32175,1.47083-.64349,2.94165-.96524,4.45845l-.13788.55157-.5056-.22982c-.3677-.18385-.78138-.32175-1.14908-.5056a7.73508,7.73508,0,0,1-2.43606-1.287,72.13992,72.13992,0,0,1-6.48083-6.205c-3.12551-3.44725-6.251-7.03239-9.23864-10.47964q-3.03359-3.44726-6.06717-6.8945c-.45963-.5056-.91927-.96524-1.47083-1.47084l6.297,13.00763c.32175.64348.59752,1.33293.8733,1.97642a21.5179,21.5179,0,0,0,2.11432,4.09073c4.55037,6.38891,9.83616,12.82378,17.92571,16.6847,3.6311,1.7466,7.17029,3.769,10.57157,5.74542,1.97642,1.14908,4.04477,2.34413,6.11312,3.44725a5.821,5.821,0,0,0,1.74661.3677h.27578c-.3677-.59752-.73542-1.14908-1.05715-1.70065-1.05715-1.65468-2.02239-3.17147-2.98762-4.73422-3.815-6.34294-5.65349-12.27222-5.65349-18.20149,0-5.28579.13789-10.61754.27578-15.58158l.87331-.13788a21.47907,21.47907,0,0,0,5.5156,8.08955c.22982.18385.41367.3677.64348.55157l.18385.13788-.13788.32175.13788.22982-.32175.18385-.046.09193h-.09193l-.27579.13788.45964.96524c4.36652,9.1467,8.87092,18.56919,10.29579,28.95691,1.0112,7.40011,2.02238,14.84616,3.03358,22.24627l1.42487,10.38772-1.79257.41366-.18385-.22981a52.4659,52.4659,0,0,1-5.56157-10.52561,66.70754,66.70754,0,0,0-3.99882-8.13552c3.58514,17.09838-.96523,32.31225-6.0212,44.99813Z"/><path class="cls-1" d="M138.62549,32.99845l1.287.046h.45964c4.73422,0,7.95165-2.57395,11.12314-5.46964l.09193-.09193,1.65468-.41367-.78138,1.05716a20.05524,20.05524,0,0,0-2.02239,3.815c-1.10311,2.482-2.2522,5.01-5.056,6.5268l-.27578.13789Z"/><path class="cls-1" d="M25.9693,165.83256c1.42486-1.65469,2.80376-3.35532,4.1367-4.964,3.21743-3.95285,6.297-7.67589,9.6523-11.16909a29.5681,29.5681,0,0,1,6.297-4.50441c.96523-.59751,1.97643-1.19505,2.94166-1.79256l.36771-.22982.8733,1.19505-.09193.22982c-.41366,1.10311-.82734,2.29816-1.19505,3.44725-1.33293,4.1367-2.71184,8.41129-6.71065,11.21506-4.59633,3.2634-9.88212,5.28578-15.81139,7.35413l-1.60872.55157Z"/><path class="cls-1" d="M87.14653,81.44383a1.29485,1.29485,0,0,1,1.01119-.73542,37.85522,37.85522,0,0,1-.8733,4.55037,8.62378,8.62378,0,0,0,1.97642,9.14671c1.5168,1.70064,3.30936,3.21743,4.64231,5.056,1.65468,2.34414,2.89569,5.01,4.41248,7.44607a13.08628,13.08628,0,0,0,2.43606,3.03359c4.73423,3.99882,7.72184,9.23864,10.75542,14.47846,1.70065,2.94165,3.21744,5.97523,4.82616,9.00882l-.68945.55156c-1.79257-1.56275-3.86092-2.89568-5.28579-4.73422-3.53918-4.45845-7.95166-7.538-13.46727-8.54918a16.67269,16.67269,0,0,0-8.22743.59751c-10.20387,3.53919-20.54562,6.02121-31.439,5.37772A62.53016,62.53016,0,0,1,46.23914,125.201c-4.36652,4.91808-8.59515,9.69827-12.73185,14.38653,10.43368-.45964,19.94809-4.55037,29.69233-7.95166,3.40129-1.19505,6.94047-2.11432,10.38772-3.17147.22982.32175.41367.64349.64349.96523-9.83616,3.723-15.90333,10.89333-19.30461,20.77545,6.48083-3.90689,14.47845-4.91809,19.12076-11.81259.22981.18385.45963.41367.68945.59752-.78138,1.47083-1.287,3.30936-2.43606,4.36652-4.41249,3.86092-9.19267,7.30817-13.51323,11.261a72.53519,72.53519,0,0,0-7.12432,8.2734c-2.2522,2.80377-4.1367,5.88331-6.57276,8.45726-1.83853,1.97642-4.41248,3.1255-7.95166,3.53918,4.22863-3.53918,7.03239-7.30817,8.18148-12.08835a4.86773,4.86773,0,0,0-.45964-.55157c-2.84972,2.02238-5.97523,3.81495-8.54918,6.15909-5.56157,5.19385-10.89332,10.57157-16.22507,15.85736-3.07955,3.07955-6.06716,6.251-8.91689,9.56037,8.68707-1.60872,15.6735-6.80257,23.25746-10.70946a4.14341,4.14341,0,0,0,.45963.41367,13.45013,13.45013,0,0,1-1.42486,2.66587q-7.7908,8.96284-15.62755,17.92571l7.17029,6.66468A295.55848,295.55848,0,0,1,43.29748,182.793c7.67588-10.20387,16.317-19.67231,26.84261-27.16435,7.76781-5.5156,13.4213-12.63992,16.1791-22.29222,1.56275,3.90688.91927,7.44607-.27578,10.80139a33.91283,33.91283,0,0,1-11.12313,16.22506A107.10831,107.10831,0,0,0,52.674,184.35578c-3.21743,4.68827-5.60752,9.97406-8.59514,14.89213-1.93046,3.17147-4.36652,6.0212-6.89451,9.46845,9.14671-2.57395,16.91452.8733,24.91214,3.07955a186.63088,186.63088,0,0,0,18.66113,4.45846,84.609,84.609,0,0,0,16.6847,1.3789c10.38771-.41367,20.40774-2.16029,27.89976-10.57158,1.56275-1.79256,2.20623-3.35532,1.65468-5.74542a46.49333,46.49333,0,0,0-6.71065-14.52442c-5.60754-8.50322-11.67469-16.68469-19.12076-23.76306-1.47083-1.3789-2.16028-1.97642-3.86092,0-2.29817,2.61992-5.23982,4.6423-7.95166,6.8945-5.056,4.32055-10.24983,8.50322-15.12195,13.00763-2.16028,1.97642-3.723,4.59633-5.69946,7.12432a38.95827,38.95827,0,0,0,3.815,2.528c8.4113,4.18267,17.23626,6.66469,26.75068,6.20506,1.47082-.09194,2.89569-.046,4.36652,0,1.33293.046,1.8845-.5056,1.56275-1.79257-1.3789-5.56157-3.35533-10.80139-7.17029-15.16791a2.51933,2.51933,0,0,0-2.29817-.18385c-2.16027,1.51678-4.1367,3.30937-6.34294,5.10193,1.97642,1.56276,3.67707,2.89569,5.42368,4.27459-5.28579.73542-10.29579.27578-15.076-2.3901A55.27915,55.27915,0,0,1,98.22369,175.301a2.818,2.818,0,0,1,2.61991.55156c5.97525,6.75662,10.84735,14.15671,13.0536,23.07361.5056,1.97642-.68945,2.98762-2.20624,3.769-4.78018,2.436-9.974,2.66586-15.1679,2.84973-10.52561.41367-20.63755-2.02239-30.74949-4.45845-4.32055-1.0112-8.91689-.78139-13.55919-1.10312a35.474,35.474,0,0,0,2.574-3.03358c1.74661-2.528,3.49322-5.01,5.01-7.67589a50.638,50.638,0,0,1,16.17911-17.558c2.482-1.65468,4.78018-3.58514,7.26221-5.23982,9.00882-5.8833,12.0424-14.61634,12.18029-24.77425a52.60693,52.60693,0,0,1,.5056-8.41129c.5056,1.3789,1.10312,2.71184,1.51679,4.09074,1.01119,3.53918,1.74661,7.12432,2.84973,10.61754a25.85824,25.85824,0,0,0,7.538,11.261,126.80883,126.80883,0,0,1,25.18792,31.393c2.80377,4.964,5.23982,10.11194,7.81377,15.16791,2.84973-9.6523.78138-18.799-4.55037-27.89976,8.825,5.23982,13.28341,14.01882,12.22626,25.00406a85.79769,85.79769,0,0,1-7.85974,29.00288l7.44607,3.17149c6.11312-15.3058,9.6523-30.6116,5.42367-47.20438,4.6423,6.38891,6.297,14.43249,10.98524,20.77545.3677-.09194.73542-.18385,1.05715-.22982-1.47083-10.75542-2.89568-21.51085-4.36652-32.22032-1.47083-10.80139-6.297-20.45369-10.93927-30.19792.22982-.09193.45963-.22981.68945-.32175l-.046-.09193.45964.09193c-.27579-.22981-.55157-.45963-.82734-.73541a22.00229,22.00229,0,0,1-5.65349-8.27341c-.13788,5.19386-.27578,10.38773-.27578,15.53561,0,6.48084,2.2522,12.45608,5.56157,17.97168,1.3789,2.29817,2.84973,4.5044,4.55037,7.21625-1.241-.18385-2.34413-.09193-3.1255-.55156-5.56157-3.03359-10.93928-6.43487-16.63874-9.14671-7.85974-3.769-13.23745-10.02-18.0636-16.82259a42.03513,42.03513,0,0,1-3.03358-6.11312c-2.3901-4.91809-4.78019-9.83616-7.35414-15.16791a43.50968,43.50968,0,0,1,3.2634,3.1255c5.10194,5.79139,10.15791,11.62873,15.30579,17.37415a63.28534,63.28534,0,0,0,6.48084,6.15908,14.52636,14.52636,0,0,0,3.49322,1.70065c1.05715-4.82615,1.93047-9.23864,2.94165-13.60515,1.51679-6.52681,3.07955-13.00763,4.55037-19.53443-.45963-5.28579-.64348-10.61754-1.10312-15.90333-.22981-2.80376-.78138-5.56157-1.05715-8.41129a47.56074,47.56074,0,0,1,2.482,5.92928c.59752,2.11431,1.05715,4.27458,1.56275,6.43487.046-.55157.13789-1.10312.22982-1.65469.13788,1.65469.3677,3.2634.5056,4.91809.55156,2.2522,1.10312,4.5044,1.79257,6.71065a49.52844,49.52844,0,0,0,12.0424,20.086,4.37032,4.37032,0,0,0,.91927.68945c-.09193-.046-.13789-.09193-.22982-.13788-6.84854-9.28461-8.41129-22.98168-8.733-26.75068-.5056-1.79257-1.10311-3.58514-1.51678-5.42367-2.3901-10.43368-4.964-20.77544-9.23864-30.65756-3.815-8.87093-1.14908-17.09837,3.723-24.77426,1.8845-2.94165,4.18266-5.74542,3.769-9.60634a4.14076,4.14076,0,0,0-.78139-2.16027c-.41366,1.51679-.5056,3.26339-1.287,4.59633-1.42486,2.43606-3.21743,4.6423-4.87211,6.94047a18.81778,18.81778,0,0,1-1.83854,2.34413c-6.0212,6.20506-6.98643,13.60516-5.33175,21.69471a6.12749,6.12749,0,0,1,0,.91926c-4.78019-3.44725-6.94047-21.6947-3.03359-26.52085.36771,1.14908.68946,2.16027,1.0112,3.21743,7.62992-4.18267,12.82378-10.43368,9.65231-13.88093-1.93047.27578-3.40129.50559-4.91809.73541a4.05318,4.05318,0,0,0-1.33293.32174c-6.43487,3.95285-13.09956,7.538-19.12076,12.08837a39.458,39.458,0,0,0-10.84736,12.31818A29.59909,29.59909,0,0,0,100.93555,86.27a15.09015,15.09015,0,0,0,1.60872,5.42368c3.86092,7.62992,8.36533,14.8002,15.12194,20.26983.64349.5056,1.287,1.0112,2.06836,1.65469,1.83853-3.95286,3.07955-7.67588,1.93046-11.85855-1.05715-3.99881-1.93046-7.99762-2.89568-12.0424-1.51679-6.15909-.82734-12.31818,0-19.07479-3.35532,4.82615-4.04477,9.83615-4.59634,14.84616a26.44019,26.44019,0,0,0,2.34413,14.75424c-5.33175-4.68827-8.6411-10.11194-7.538-17.46608a35.1233,35.1233,0,0,1,12.18029-22.01645,8.549,8.549,0,0,1,1.287-.96523,2.61419,2.61419,0,0,1,.73541-.13789c0,2.61991.046,5.14789,0,7.72184A88.58666,88.58666,0,0,0,127.962,97.34717c3.67707,11.39892,1.7466,22.33819-2.98762,33.27748-1.65468-1.97642-3.17147-3.90689-4.82615-5.79139-5.74542-6.43487-11.62873-12.77781-17.23626-19.35057A100.97765,100.97765,0,0,1,95.7417,95.14093c-4.87212-7.4001-3.21743-21.6947,2.574-28.08361a77.43494,77.43494,0,0,1,18.01764-14.75425c4.36652-2.61991,7.95166-6.57276,11.90451-9.974.73542-.64349,1.3789-1.42487,2.11432-2.11432,2.94165-2.80376,3.723-2.89569,7.2622-.96523a11.99884,11.99884,0,0,0,1.70065.64349c-.55156-4.6423-12.68589-9.6523-19.12076-7.95166a3.87189,3.87189,0,0,0,.3677,1.241c1.05716,1.60872.45964,2.61991-.96523,3.63111-1.79257,1.287-3.40128,2.7578-5.28578,4.32055,1.83853,1.14909,3.49321,2.20625,5.10193,3.21744-4.59634.5056-9.1467,1.14908-13.69708-1.65468,1.88449-1.93046,3.67706-3.67707,5.33174-5.5156a5.96848,5.96848,0,0,0,.68945-1.65468c-.68945-.18386-1.60871-.73542-2.06835-.45964a87.90341,87.90341,0,0,0-16.1791,11.39892,113.35382,113.35382,0,0,0,18.5692,3.90688c-9.74423,2.574-14.89212,9.88212-19.53442,18.01764.22981-.78138.5056-1.56275.73541-2.34414a18.51478,18.51478,0,0,0,.59753-2.66587,64.44881,64.44881,0,0,0,.55156-8.36533c-.046-2.02239-1.65469-2.8957-3.63111-3.12551-4.6423-.55156-7.99762,1.56275-11.07717,4.82615C75.334,61.3119,70.7836,65.72438,66.37112,70.4586c3.6311-2.11432,7.26221-4.32055,10.93928-6.34294s7.44606-3.86092,11.307-5.79139c.22981.78138.36771.96523.32174,1.05716-3.12551,3.67707-3.86092,7.99762-3.723,12.63992a54.52526,54.52526,0,0,1-.41366,8.22744A9.44431,9.44431,0,0,1,82.826,84.983h0l1.79257,2.574"/><path class="cls-1" d="M145.15228,38.05442c4.13671-2.25221,4.50441-6.94047,6.94047-10.20387l-.27578.09192c-3.35532,3.03358-6.75662,5.74542-11.90451,5.60753C141.65907,35.02083,143.40568,36.53763,145.15228,38.05442Z"/><path class="cls-1" d="M49.73236,144.41363c-.1379-.22982-.32175-.41367-.45964-.64349-3.07954,2.06835-6.61872,3.63111-9.14671,6.251-4.78019,4.964-9.00882,10.47964-13.743,16.13315,5.65349-1.97642,10.98524-3.95286,15.6735-7.30818C46.92859,155.3529,47.75593,149.51556,49.73236,144.41363Z"/><path class="cls-2" d="M177.92417,149.05593c-4.32056-4.73422-8.68708-9.42249-13.42131-14.61634,3.40129,7.99762,5.65349,15.85736,11.76662,22.33819-1.0112.13789-1.60871.41367-2.06835.27579-8.54919-2.80377-16.96047-5.97524-23.71709-12.13433-4.64231-4.22863-6.84854-9.97405-7.584-16.08717-.78138-6.61872-.96523-13.28341-1.51678-19.90213-.22982-2.80377-.78139-5.56157-1.05716-8.4113a47.56137,47.56137,0,0,1,2.482,5.92928c1.47084,5.42367,2.43606,11.03121,4.13671,16.363a49.52844,49.52844,0,0,0,12.0424,20.086,2.35876,2.35876,0,0,0,1.83854.8733c-3.40129-12.45607-3.40129-24.72828,1.65468-37.0005.55157,4.73422,1.05715,9.19267,1.56275,13.65112h.68945c.45963-1.0112.8733-2.02238,1.3789-2.98762,3.03359-5.65348,5.79139-11.49084,9.19267-16.86855,3.17147-5.01,7.81377-8.733,12.86974-11.90451,5.10194-3.2634,10.29579-6.34294,14.11076-11.21505.96523-1.287,1.7466-2.71184,2.61992-4.09074-.18385-.18385-.3677-.32174-.55157-.5056-.5056.22982-.96523.55156-1.47083.73542-2.84974,1.01119-5.69946,2.57395-8.59516,2.71183-2.80376.1379-4.82615-2.43606-6.205-4.82615-2.482-4.36652-1.7466-9.10074-.96523-13.65111.96523-5.46964,3.35532-10.38773,5.8833-15.35177,4.50441-8.91689,6.11312-18.15552,1.65469-28.12957-.27579.68945-.41367,1.01119-.55157,1.3789-.13788.41367-.22982.8733-.45963,1.65468-4.22864-2.66588-7.67589-6.89451-13.37534-5.1479q3.3783,1.17207,6.75662,2.34413c-.046.22982-.046.45964-.09194.68945-.5056.13789-1.0112.27578-1.56275.41367-8.59515,2.25221-15.67351,7.17029-22.38416,12.63993-3.1255,2.528-6.251,5.19386-7.492,9.37652-.8733,3.07955-.27578,5.37771,2.528,6.75662,2.57395,1.287,5.37772,2.11431,8.08956,3.17146.73541.27579,1.51678.5056,2.2522.78138v.64348a21.66529,21.66529,0,0,1-2.3901.41367c-6.8945.41367-13.14552,2.39009-16.77663,8.68707-2.89568,4.96405-3.40128,10.6635-2.436,16.22507,1.05715,6.06716,2.89569,12.0424,3.99882,18.10956a91.4858,91.4858,0,0,1,1.0112,12.31818c.13788,3.95285.046,7.9057.046,11.85855a5.6306,5.6306,0,0,1-.8733.09193c-.5056-1.79257-1.10311-3.58513-1.51678-5.42367-2.3901-10.43368-4.964-20.77543-9.23864-30.65756-3.815-8.87093-1.14908-17.09836,3.723-24.77425,1.8845-2.94165,4.18266-5.74542,3.769-9.60634a4.14076,4.14076,0,0,0-.78139-2.16028c-.41366,1.51679-.5056,3.2634-1.287,4.59633-1.42486,2.43606-3.21743,4.6423-4.87211,6.94047a18.81789,18.81789,0,0,1-1.83854,2.34414c-6.0212,6.20505-6.98643,13.60515-5.33175,21.6947a6.12762,6.12762,0,0,1,0,.91927c-4.78019-3.44725-6.94047-21.69471-3.03359-26.52086.36771,1.14908.68946,2.16028,1.0112,3.21744,7.62992-4.18267,12.82378-10.43369,9.65231-13.88094-1.93047.27578-3.40129.5056-4.91809.73542a4.05268,4.05268,0,0,0-1.33293.32174c-6.43487,3.95285-13.09956,7.538-19.12076,12.08836a39.458,39.458,0,0,0-10.84736,12.31818A29.59912,29.59912,0,0,0,100.93555,86.27a15.09,15.09,0,0,0,1.60872,5.42368c3.86092,7.62992,8.36533,14.8002,15.12194,20.26984.64349.5056,1.287,1.0112,2.06836,1.65468,1.83853-3.95285,3.07955-7.67588,1.93046-11.85855-1.05715-3.99881-1.93046-7.99762-2.89568-12.0424-1.51679-6.15908-.82734-12.31818,0-19.07479-3.35532,4.82615-4.04477,9.83616-4.59634,14.84617a26.44016,26.44016,0,0,0,2.34413,14.75423c-5.33175-4.68826-8.6411-10.11194-7.538-17.46608a35.12325,35.12325,0,0,1,12.18029-22.01644,8.54906,8.54906,0,0,1,1.287-.96524,2.61491,2.61491,0,0,1,.73541-.13789c0,2.61991.046,5.1479,0,7.72185A88.58666,88.58666,0,0,0,127.962,97.34719c3.67707,11.39891,1.7466,22.33818-2.98762,33.27747-1.65468-1.97642-3.17147-3.90688-4.82615-5.79138-5.74542-6.43487-11.62873-12.77781-17.23626-19.35058A100.97765,100.97765,0,0,1,95.7417,95.14094c-4.87212-7.4001-3.21743-21.6947,2.574-28.08361a77.4349,77.4349,0,0,1,18.01764-14.75424c4.36652-2.61991,7.95166-6.57276,11.90451-9.974.73542-.64349,1.3789-1.42486,2.11432-2.11431,2.94165-2.80377,3.723-2.8957,7.2622-.96523a11.99884,11.99884,0,0,0,1.70065.64349c-.55156-4.6423-12.68589-9.65231-19.12076-7.95166a3.872,3.872,0,0,0,.3677,1.241c1.05716,1.60871.45964,2.61991-.96523,3.6311-1.79257,1.287-3.40128,2.7578-5.28578,4.32056,1.83853,1.14908,3.49321,2.20624,5.10193,3.21743-4.59634.5056-9.1467,1.14909-13.69708-1.65468,1.88449-1.93046,3.67706-3.67707,5.33174-5.5156a5.96823,5.96823,0,0,0,.68945-1.65468c-.68945-.18385-1.60871-.73541-2.06835-.45963a87.90335,87.90335,0,0,0-16.1791,11.39891,113.35491,113.35491,0,0,0,18.5692,3.90689c-9.74423,2.574-14.89212,9.88212-19.53442,18.01763.22981-.78137.5056-1.56275.73541-2.34413a18.51461,18.51461,0,0,0,.59753-2.66588,64.44881,64.44881,0,0,0,.55156-8.36533c-.046-2.02238-1.65469-2.89569-3.63111-3.12551-4.6423-.55156-7.99762,1.56275-11.07717,4.82615-4.36652,4.59634-8.91689,9.00882-13.32937,13.743,3.6311-2.11431,7.26221-4.32055,10.93928-6.34294s7.44606-3.86092,11.307-5.79139c.22981.78138.36771.96524.32174,1.05716-3.12551,3.67707-3.86092,7.99762-3.723,12.63993a54.52513,54.52513,0,0,1-.41366,8.22743c-.68945,4.59634-3.49322,7.21625-8.08956,7.67588-2.57395.22982-5.19386.046-7.7678.27579-8.18148.78137-15.76543,3.815-23.02764,7.4001-5.23983,2.57395-10.24983,5.74542-15.3058,8.779-3.769,2.25221-3.99881,5.1479-.8733,8.18148,3.40129,3.30937,7.72184,4.87212,11.99643,6.52681,8.779,3.44725,17.74185,3.17147,26.61279.78138,6.5268-1.7466,12.96167-4.09074,19.35058-6.297a13.89289,13.89289,0,0,0,3.67707-2.2522c3.07954-2.20623,3.17146-3.40128.64348-6.297-3.723-4.22862-11.1691-5.10193-16.63873.046-2.02239,1.88449-3.95286,3.86093-5.79139,5.88331a24.40062,24.40062,0,0,1-9.60634,6.48084,13.07975,13.07975,0,0,1-3.03358.27578c.09192-.91927.13789-1.8845.32174-2.80377.41367-2.02238,1.05716-3.99882,1.33293-6.0212a14.3644,14.3644,0,0,0-.59752-3.815c-7.62992,5.056-15.21387,8.50321-24.13077,5.60753-.50559-.13789-.82734-.78139-.91926-1.65469a7.5718,7.5718,0,0,1,1.47082.27579c4.91808,2.11431,9.05478.59751,12.86974-2.66587,3.67707-3.12551,7.35414-6.251,12.13433-7.62992a16.24,16.24,0,0,1,2.66587-.45964c.68945,3.723,1.33294,7.21625,2.06836,10.98524.55155-.5056,1.10311-.96523,1.60871-1.47083,3.99881-3.769,7.95167-7.538,12.86974-10.29579,1.60872-.91927,2.66588-3.03358,3.53918-4.82615,1.79257-3.67707,3.30936-7.538,4.964-11.307a1.2949,1.2949,0,0,1,1.0112-.73542,37.85643,37.85643,0,0,1-.8733,4.55037,8.62378,8.62378,0,0,0,1.97642,9.14671c1.51679,1.70064,3.30936,3.21743,4.6423,5.056,1.65469,2.34413,2.8957,5.01,4.41249,7.44607a13.086,13.086,0,0,0,2.43606,3.03358c4.73423,3.99882,7.72184,9.23864,10.75542,14.47846,1.70065,2.94165,3.21744,5.97524,4.82615,9.00882l-.68945.55157c-1.79256-1.56275-3.86092-2.89569-5.28578-4.73422-3.53919-4.45845-7.95167-7.538-13.46727-8.54919a16.67274,16.67274,0,0,0-8.22744.59752c-10.20386,3.53918-20.54562,6.0212-31.43894,5.37772-6.43487-.36771-12.82378-1.14909-18.52323-4.45846-5.1479-2.98761-10.20387-6.06716-15.122-9.37652a8.15407,8.15407,0,0,1-3.6311-6.11312c-.22982-2.2522.64348-3.6311,2.66587-4.78019,6.38891-3.58514,12.63993-7.4001,18.89094-11.21505a24.05826,24.05826,0,0,0,4.2746-3.49322c4.91808-4.87212,10.98524-7.35414,17.604-8.825,3.95285-.8733,7.67588-2.06836,10.75542-4.78019.59753-.55156,1.42487-.82734,2.06835-1.79257-.96523.22982-2.11431.13789-2.84972.68945-3.99881,2.89569-8.64112,4.09074-13.32938,5.23982-3.67707.8733-7.21624,2.2522-10.6635,3.30936A23.52452,23.52452,0,0,1,51.479,78.778c5.23982-4.68826,9.00882-10.57157,13.05359-16.22506C71.84075,52.395,81.30921,44.6732,91.97271,38.1464c8.08955-4.964,16.317-9.2846,25.73948-11.261a44.1295,44.1295,0,0,1,19.76425.41367,12.23657,12.23657,0,0,0,9.23864-1.47082c8.50322-4.68827,17.05241-9.2846,25.55563-13.97287,2.57395-1.42486,5.01-3.17147,7.492-4.73422C183.164,4.9149,186.5653,2.75462,189.9666.54838c1.51679-.96523,2.7578-.59752,4.09074.64349a18.29913,18.29913,0,0,1,5.056,9.56037c.96523,4.32056,2.34413,8.54919,3.17146,12.86974,1.241,6.5268-.41366,12.548-3.99881,18.10957-3.44726,5.37771-6.297,11.0312-7.35414,17.37414a29.63948,29.63948,0,0,0-.22982,6.38891c.09193,1.97642,1.241,2.57395,2.98762,1.79257a27.79115,27.79115,0,0,0,5.83735-2.94166c.91927-.68945,1.14909-2.34413,1.60872-3.58514.5056-1.33293.96523-2.71183,1.42487-4.09073q2.13729,1.31,4.27458,2.61991c.78139.45963,1.60872,1.287,2.34414,1.241,2.06835-.13789,2.71183,1.05716,2.98762,2.66588,1.65468,9.33056-1.93047,16.6847-8.91689,22.43012-5.19386,4.2746-10.84736,7.95166-16.13314,12.08837a41.93,41.93,0,0,0-14.06479,21.00525,20.06027,20.06027,0,0,0-.046,13.51322c1.56275,4.13671,3.07955,8.27341,4.59634,12.41011.45963,1.287.78138,2.66587,1.14908,3.95285C178.42975,148.78015,178.154,148.918,177.92417,149.05593ZM152.69027,27.11514c-3.6311,3.35532-7.21625,6.57276-12.77781,6.38891l5.23982,4.55037C149.56477,35.61836,149.6567,30.4245,152.69027,27.11514Zm51.0653,31.11719-.55157.27578v4.09074c.91927-.73542,2.02238-1.287,1.93047-1.56275A12.19925,12.19925,0,0,0,203.75557,58.23233Z"/><path class="cls-2" d="M140.78576,205.77471c2.84974-9.6523.78139-18.799-4.55037-27.89976,8.825,5.23982,13.28341,14.01882,12.22626,25.00406a83.86277,83.86277,0,0,1-10.02,33.13959,47.75662,47.75662,0,0,1-4.1367,5.97523c2.06835-10.24982,2.2522-20.31581-1.241-30.01406-6.89451,6.297-13.37534,12.96167-20.63755,18.5692-7.26221,5.65349-15.076,10.75544-24.72829,11.90452,5.60753-4.82615,11.307-9.56037,15.76544-16.36294-1.65469,0-2.71184-.09193-3.723,0-4.36652.41368-8.779.45963-13.00763,1.3789A64.48568,64.48568,0,0,0,73.72523,231.79c-5.51561,2.482-10.6635,5.65348-16.08718,8.2734a60.78639,60.78639,0,0,1-7.07835,2.34412c-.13789-.22981-.22982-.41368-.36771-.6435a20.71037,20.71037,0,0,1,2.43606-2.06835c5.10193-3.35532,8.733-8.08954,11.76662-13.28342a2.14123,2.14123,0,0,0-.64348-2.06835c-11.44488-4.78019-22.88976-7.03239-34.70234-.8733a54.80669,54.80669,0,0,0-17.14433,13.60516,4.048,4.048,0,0,1-2.20624,1.287c.3677-.82733.64349-1.65467,1.05715-2.436,10.2958-18.10956,20.086-36.4949,32.634-53.17961,7.67588-10.20387,16.317-19.67231,26.8426-27.16435,7.76781-5.5156,13.4213-12.63992,16.1791-22.29223,1.56276,3.90689.91927,7.44607-.27578,10.80139A33.91267,33.91267,0,0,1,75.01221,160.317,107.10787,107.10787,0,0,0,52.766,184.30983c-3.21744,4.68827-5.60753,9.97406-8.59515,14.89213-1.93046,3.17147-4.36652,6.0212-6.8945,9.46845,9.14671-2.57395,16.91451.8733,24.91214,3.07955a186.62789,186.62789,0,0,0,18.66112,4.45845,84.60753,84.60753,0,0,0,16.6847,1.3789c10.38772-.41366,20.40774-2.16028,27.89976-10.57157,1.56275-1.79257,2.20623-3.35532,1.65468-5.74542a46.49333,46.49333,0,0,0-6.71065-14.52442c-5.60754-8.50322-11.67469-16.6847-19.12076-23.76306-1.47083-1.3789-2.16028-1.97642-3.86092,0-2.29817,2.61991-5.23982,4.6423-7.95166,6.8945-5.056,4.32055-10.24983,8.50322-15.12195,13.00762-2.16028,1.97642-3.723,4.59634-5.69945,7.12433a38.95707,38.95707,0,0,0,3.815,2.528c8.41129,4.18267,17.23625,6.66469,26.75067,6.20505,1.47082-.09193,2.89569-.046,4.36652,0,1.33293.046,1.8845-.5056,1.56275-1.79256-1.3789-5.56157-3.35533-10.80139-7.17029-15.16791a2.51933,2.51933,0,0,0-2.29817-.18385c-2.16027,1.51678-4.1367,3.30936-6.34294,5.10193,1.97643,1.56275,3.67707,2.89569,5.42368,4.27459-5.28579.73542-10.29579.27578-15.076-2.3901A55.27937,55.27937,0,0,1,98.31562,175.255a2.818,2.818,0,0,1,2.61991.55157c5.97525,6.75662,10.84735,14.15671,13.0536,23.07361.5056,1.97642-.68945,2.98762-2.20623,3.769-4.78019,2.43606-9.974,2.66587-15.16791,2.84974-10.52561.41366-20.63755-2.02239-30.74949-4.45845-4.32055-1.0112-8.91688-.78139-13.55919-1.10312a35.47261,35.47261,0,0,0,2.57395-3.03359c1.74661-2.528,3.49322-5.01,5.01-7.67588a50.63788,50.63788,0,0,1,16.1791-17.558c2.482-1.65469,4.78018-3.58514,7.26221-5.23982,9.00882-5.88331,12.0424-14.61634,12.18029-24.77425a52.60809,52.60809,0,0,1,.5056-8.41129c.5056,1.3789,1.10312,2.71184,1.51679,4.09074,1.01119,3.53918,1.74661,7.12432,2.84973,10.61754a25.8584,25.8584,0,0,0,7.538,11.261,126.80883,126.80883,0,0,1,25.18791,31.393C135.72979,195.57084,138.16586,200.71874,140.78576,205.77471Z"/><path class="cls-2" d="M12.0424,146.7118a38.39511,38.39511,0,0,1,3.40129-2.16029c6.0212-2.94165,10.47964-7.9057,15.71947-11.81259,4.45844-3.30936,9.46845-5.83735,14.2946-8.6411a7.70279,7.70279,0,0,1,2.2522-.55157c-4.91807,5.56157-9.60634,10.84736-14.20268,16.08718,10.43369-.45964,19.9481-4.55037,29.69233-7.95166,3.40129-1.19505,6.94047-2.11432,10.38773-3.17147.22981.32175.41366.64349.64348.96524-9.83616,3.723-15.90332,10.89332-19.30461,20.77544,6.48084-3.90689,14.47846-4.91808,19.12075-11.81259.22982.18385.45964.41367.68945.59752-.78137,1.47083-1.287,3.30937-2.43606,4.36652-4.41248,3.86092-9.19267,7.30817-13.51322,11.261a72.53344,72.53344,0,0,0-7.12432,8.27341c-2.2522,2.80376-4.1367,5.8833-6.57276,8.45725-1.83854,1.97642-4.41249,3.1255-7.95167,3.53919,4.22863-3.53919,7.0324-7.30818,8.18148-12.08836a4.87041,4.87041,0,0,0-.45963-.55157c-2.84973,2.02239-5.97524,3.81495-8.54918,6.15909-5.56156,5.1479-10.89331,10.52562-16.22506,15.81141-3.07955,3.07955-6.06716,6.251-8.91689,9.56037,8.68707-1.60872,15.6735-6.80257,23.25746-10.70946a4.14341,4.14341,0,0,0,.45963.41367,13.45013,13.45013,0,0,1-1.42486,2.66587c-7.85974,9.05479-15.71947,18.15552-23.76306,27.02645A54.213,54.213,0,0,1,0,221.17242c3.17147-7.07835,5.79138-14.38652,11.85855-20.13194-4.55038-.96524-7.99763.41366-11.62873,2.20623,3.723-11.95047,10.61753-21.327,20.086-28.95691-6.11313.41366-11.72066,3.49322-18.47727,2.71183.64348-.82733.91926-1.47083,1.42486-1.7466,10.93928-6.75662,19.30461-16.17911,27.11838-26.15315.45963-.59752,1.01119-1.14908,1.51679-1.70065.41367-.5056.82734-1.0112,1.287-1.56275-7.0324.5056-13.9269,1.0112-20.8214,1.47083A3.79821,3.79821,0,0,1,12.0424,146.7118Zm37.69-2.29817c-.1379-.22982-.32175-.41367-.45964-.64349-3.07954,2.06835-6.61872,3.63111-9.14671,6.251-4.78019,4.964-9.00882,10.47964-13.743,16.13315,5.65349-1.97642,10.98524-3.95286,15.6735-7.30818C46.92859,155.3529,47.75593,149.51556,49.73236,144.41363Z"/><path class="cls-2" d="M165.46809,208.39463c-1.47083-10.75542-2.89568-21.51085-4.36652-32.22032-1.47083-10.80139-6.297-20.45369-10.93927-30.19792.22982-.13788.45963-.22981.73542-.3677,3.21743,3.07955,6.57275,6.11312,9.69827,9.33056,4.55037,4.73422,9.19267,9.46845,13.28341,14.57039,6.94047,8.6411,10.98524,18.47727,10.47964,29.83022,0,.3677-.046.73541-.13789,1.83853-4.6423-9.79019-8.13552-19.48846-16.45487-26.9805,0,1.10312-.046,1.60872,0,2.16029,1.287,9.6523,2.89568,19.25864,3.769,28.91095.91926,9.69827,2.3901,19.53442-.59752,29.18673a35.08711,35.08711,0,0,1-3.30937,7.21625c-1.14908-9.51442-.45963-19.30461-7.7678-27.76186-2.25221,11.07717-5.56157,21.09717-14.9381,28.45131,7.81378-17.78782,13.42131-35.29985,8.50323-54.51254,4.6423,6.3889,6.297,14.43249,10.98524,20.77544A8.69947,8.69947,0,0,0,165.46809,208.39463Z"/><path class="cls-2" d="M134.90246,157.92685c1.05715-4.82615,1.93047-9.23864,2.94165-13.60515,1.8845-8.27341,3.95285-16.45488,5.74542-24.77425.59752-2.71184.41367-5.56157.96524-8.41129a83.38519,83.38519,0,0,1,.64348,8.31937c-.18385,10.93927-.68945,21.8326-.73542,32.77187,0,6.48084,2.2522,12.45607,5.56157,17.97167,1.3789,2.29817,2.84974,4.50441,4.55037,7.21626-1.241-.18385-2.34413-.09193-3.1255-.55157-5.56157-3.03358-10.93927-6.43487-16.63874-9.1467-7.85974-3.769-13.23744-10.02-18.0636-16.8226a42.03412,42.03412,0,0,1-3.03358-6.11312c-2.3901-4.91808-4.78019-9.83615-7.35414-15.16791a43.50976,43.50976,0,0,1,3.2634,3.12551c5.10194,5.79138,10.15791,11.62872,15.3058,17.37414a63.2832,63.2832,0,0,0,6.48083,6.15909A17.556,17.556,0,0,0,134.90246,157.92685Z"/><path class="cls-3" d="M188.128,88.56815c5.10194-3.2634,10.29579-6.343,14.11076-11.21506.96523-1.287,1.7466-2.71183,2.61992-4.09074-.18385-.18385-.3677-.32174-.55157-.5056-.5056.22982-.96523.55156-1.47083.73542-2.84974,1.01119-5.69946,2.57395-8.59516,2.71184-2.80376.13789-4.82615-2.43606-6.205-4.82616-2.482-4.36652-1.7466-9.10074-.96523-13.65111.96523-5.46964,3.35532-10.38772,5.8833-15.35176,4.50441-8.9169,6.11312-18.15553,1.65469-28.12958-.27579.68945-.41367,1.01119-.55157,1.3789-.13788.41367-.22982.8733-.45963,1.65468-4.22864-2.66587-7.67589-6.8945-13.37534-5.1479q3.3783,1.17207,6.75662,2.34413c-.046.22982-.046.45964-.09194.68946-.5056.13788-1.0112.27577-1.56275.41367-8.59515,2.2522-15.67351,7.17028-22.38416,12.63992-3.1255,2.528-6.251,5.19386-7.492,9.37653-.8733,3.07954-.27578,5.37771,2.528,6.75661,2.57395,1.287,5.37772,2.11431,8.08956,3.17147.73541.27578,1.51678.5056,2.2522.78137v.64349a21.6676,21.6676,0,0,1-2.3901.41366c-6.8945.41367-13.14552,2.3901-16.77663,8.68708-2.89568,4.964-3.40128,10.66349-2.436,16.22506,1.05715,6.06716,2.89569,12.0424,3.99882,18.10957a91.4858,91.4858,0,0,1,1.0112,12.31818c.13788,3.95285.046,7.9057.046,11.85855a5.6306,5.6306,0,0,1-.8733.09193h0c.32175,3.769,1.8845,17.46608,8.733,26.75068.09193.046.13789.09193.22982.13789a4.35972,4.35972,0,0,0,.91927.18385c-3.40129-12.45608-3.40129-24.72828,1.65468-37.00051.55156,4.73422,1.05715,9.19268,1.56275,13.65113h.68945c.45963-1.0112.8733-2.02239,1.3789-2.98762,3.03359-5.65349,5.79139-11.49084,9.19267-16.86855C178.42975,95.46265,183.07205,91.78558,188.128,88.56815Z"/><path class="cls-3" d="M68.39347,119.63938c6.5268-1.7466,12.96167-4.09074,19.35058-6.297a13.89257,13.89257,0,0,0,3.67707-2.2522c3.07954-2.20623,3.17147-3.40128.64348-6.297-3.723-4.22862-11.16909-5.10193-16.63873.046-2.02239,1.88449-3.95285,3.86093-5.79139,5.88331a24.40055,24.40055,0,0,1-9.60634,6.48084,13.0797,13.0797,0,0,1-3.03358.27578c.09193-.91927.13789-1.8845.32174-2.80377.41367-2.02238,1.05716-3.99881,1.33294-6.0212a14.36446,14.36446,0,0,0-.59753-3.815c-7.62992,5.056-15.21387,8.50323-24.13076,5.60753-.5056-.13789-.82734-.78138-.91927-1.65468a7.57115,7.57115,0,0,1,1.47083.27578c4.91808,2.11432,9.05478.59752,12.86974-2.66587,3.67707-3.12551,7.35414-6.251,12.13432-7.62992a16.24113,16.24113,0,0,1,2.66588-.45964c.68945,3.723,1.33293,7.21625,2.06835,10.98524.55156-.50559,1.10312-.96523,1.60872-1.47083,3.99881-3.769,7.95166-7.538,12.86974-10.29579,1.60871-.91926,2.66587-3.03358,3.53917-4.82615s1.70065-3.6311,2.482-5.46964l-1.79257-2.57395a8.66474,8.66474,0,0,1-6.15908,2.94165c-2.57395.22982-5.19386.046-7.76781.27579-8.18148.78137-15.76543,3.815-23.02764,7.4001-5.23982,2.57395-10.24983,5.74542-15.3058,8.779-3.769,2.25221-3.99881,5.14791-.8733,8.18148,3.40129,3.30936,7.72184,4.87212,11.99644,6.5268C50.5597,122.25928,59.52255,122.02947,68.39347,119.63938Z"/></svg>