<svg id="Camada_1" data-name="Camada 1" xmlns="http://www.w3.org/2000/svg" viewBox="0 0 108.66667 123.94536"><defs><style>.cls-1{fill:#fff;}</style></defs><path class="cls-1" d="M90.95713,76.19932c-2.20872-2.4202-4.44094-4.8169-6.86114-7.47206,1.73878,4.08848,2.89013,8.10648,6.01525,11.41957-.51694.07049-.8224.21147-1.05737.141-4.37045-1.43332-8.67041-3.05462-12.12449-6.20322a12.84263,12.84263,0,0,1-3.877-8.224c-.39945-3.38358-.49344-6.79065-.7754-10.17423-.11749-1.43332-.39945-2.84314-.54043-4.3a24.31478,24.31478,0,0,1,1.26884,3.03112c.75191,2.77265,1.24534,5.6393,2.11474,8.365a25.31968,25.31968,0,0,0,6.15623,10.26822,1.20585,1.20585,0,0,0,.93988.44644,28.45073,28.45073,0,0,1,.8459-18.91514c.282,2.4202.54043,4.69942.7989,6.97864h.35245c.235-.51694.44644-1.03387.70491-1.52731,1.55081-2.89014,2.96063-5.87427,4.69942-8.62343A20.17032,20.17032,0,0,1,96.197,45.3242c2.60818-1.6683,5.26334-3.2426,7.2136-5.73329.49344-.65791.89289-1.38632,1.33934-2.09123-.094-.094-.188-.16448-.282-.25847-.25847.11748-.49344.282-.75191.37595a16.42447,16.42447,0,0,1-4.394,1.38633c-1.43332.07049-2.46719-1.24535-3.1721-2.46719-1.26884-2.23222-.89289-4.65242-.49344-6.97863a28.23791,28.23791,0,0,1,3.00762-7.848c2.30271-4.55843,3.1251-9.28134.84589-14.3802-.141.35245-.21147.51693-.282.70491-.07049.21147-.11749.44644-.235.84589-2.16174-1.36283-3.924-3.52456-6.83765-2.63167l3.45407,1.19835c-.0235.11749-.0235.235-.047.35246-.25847.07049-.51694.141-.7989.21147-4.394,1.15136-8.0125,3.66554-11.44307,6.46169-1.5978,1.29234-3.1956,2.65517-3.83,4.79341-.44644,1.5743-.141,2.74915,1.29234,3.45406,1.31584.65792,2.74916,1.08087,4.13549,1.6213.376.141.7754.25847,1.15135.39945v.329a11.07813,11.07813,0,0,1-1.22185.21147c-3.52456.21147-6.72016,1.22184-8.57643,4.44094a12.1156,12.1156,0,0,0-1.24534,8.29447c.54043,3.10161,1.48031,6.15623,2.04425,9.25784a46.77011,46.77011,0,0,1,.51694,6.29721c.07048,2.02075.0235,4.04149.0235,6.06224a2.87866,2.87866,0,0,1-.44645.047c-.25847-.91638-.56393-1.83277-.7754-2.77265a89.16491,89.16491,0,0,0-4.72291-15.67254c-1.95025-4.53493-.58743-8.74091,1.90326-12.66492.96339-1.50381,2.13824-2.93713,1.92677-4.91089a2.11684,2.11684,0,0,0-.39946-1.10436,9.65516,9.65516,0,0,1-.65791,2.34971c-.72841,1.24534-1.6448,2.3732-2.49069,3.54805a9.6206,9.6206,0,0,1-.93988,1.19836c-3.07812,3.1721-3.57156,6.95513-2.72566,11.09061a3.13388,3.13388,0,0,1,0,.46994c-2.4437-1.76228-3.54806-11.09061-1.55081-13.5578.188.58742.35245,1.10436.51694,1.64479,3.90051-2.13823,6.55568-5.33383,4.93438-7.09611-.98688.141-1.73878.25847-2.51419.37595a2.07166,2.07166,0,0,0-.68141.16448c-3.28959,2.02075-6.69667,3.85352-9.77478,6.17973a20.17128,20.17128,0,0,0-5.54531,6.29721,15.13137,15.13137,0,0,0-2.06774,8.88189A7.71421,7.71421,0,0,0,52.422,46.875c1.97376,3.90052,4.27647,7.56606,7.73054,10.36221.329.25847.65792.51694,1.05737.84589.93988-2.02075,1.5743-3.924.98688-6.06224-.54043-2.04424-.98688-4.08849-1.48031-6.15623-.7754-3.1486-.423-6.29721,0-9.75128-1.71529,2.46719-2.06774,5.02837-2.34971,7.58955a13.51656,13.51656,0,0,0,1.19835,7.54256c-2.72566-2.3967-4.41744-5.16936-3.85352-8.92889a17.9555,17.9555,0,0,1,6.22673-11.25509,4.37,4.37,0,0,1,.65791-.49344,1.33683,1.33683,0,0,1,.376-.07049c0,1.33933.0235,2.63167,0,3.94751a45.28661,45.28661,0,0,0,2.4437,15.32008c1.87976,5.82727.89288,11.41957-1.52731,17.01188-.8459-1.01037-1.6213-1.99725-2.46719-2.96064-2.93714-3.28958-5.94476-6.53218-8.8114-9.89226a51.62028,51.62028,0,0,1-3.66554-5.28684c-2.49069-3.783-1.6448-11.09061,1.31583-14.35671A39.586,39.586,0,0,1,59.47108,26.738c2.23222-1.33933,4.065-3.36008,6.08574-5.09886.376-.329.70491-.72841,1.08087-1.08086C68.1415,19.125,68.541,19.078,70.35022,20.06485a6.13429,6.13429,0,0,0,.8694.329c-.282-2.3732-6.4852-4.93438-9.77478-4.065a1.979,1.979,0,0,0,.188.63442c.54043.8224.235,1.33933-.49344,1.85627-.91638.65792-1.73878,1.40982-2.70216,2.20872.93988.58743,1.78578,1.12786,2.60817,1.6448-2.3497.25846-4.67591.58742-7.00212-.8459.96337-.98687,1.87976-1.87976,2.72565-2.81965a3.05076,3.05076,0,0,0,.35246-.84589c-.35246-.094-.8224-.37595-1.05737-.235a44.93721,44.93721,0,0,0-8.271,5.82727,57.94768,57.94768,0,0,0,9.49281,1.99725C52.30448,27.067,49.67281,30.803,47.2996,34.962c.11749-.39945.25847-.7989.376-1.19835a9.4665,9.4665,0,0,0,.30546-1.36283,32.94577,32.94577,0,0,0,.282-4.27647c-.0235-1.03387-.84589-1.48031-1.85626-1.5978-2.37321-.282-4.08849.7989-5.6628,2.46719-2.23222,2.34971-4.55843,4.60543-6.81415,7.02562,1.85627-1.08086,3.71254-2.20872,5.59231-3.24259s3.80652-1.97375,5.78027-2.96063c.11749.39945.188.49344.16448.54043a9.02024,9.02024,0,0,0-1.90326,6.46169,27.87455,27.87455,0,0,1-.21147,4.206,4.26977,4.26977,0,0,1-4.13549,3.924c-1.31583.11748-2.65517.02349-3.971.141a34.07034,34.07034,0,0,0-11.772,3.783c-2.67866,1.31583-5.23984,2.93713-7.82452,4.48794-1.92676,1.15136-2.04424,2.63167-.44644,4.18248,1.73878,1.69179,3.9475,2.49069,6.13273,3.33658a21.25161,21.25161,0,0,0,13.6048.39945c3.33658-.89288,6.62617-2.09123,9.89227-3.2191a7.10229,7.10229,0,0,0,1.87976-1.15135c1.5743-1.12786,1.6213-1.73878.329-3.2191a5.90988,5.90988,0,0,0-8.50594.0235c-1.03387.96338-2.02075,1.97376-2.96063,3.00763a12.47381,12.47381,0,0,1-4.91088,3.31308,6.68639,6.68639,0,0,1-1.55081.141c.047-.46994.07049-.96338.16448-1.43333.21147-1.03386.54043-2.04424.68141-3.07811a7.34347,7.34347,0,0,0-.30546-1.95026c-3.90052,2.58467-7.77753,4.347-12.336,2.86664-.25847-.07049-.423-.39945-.46994-.84589a3.86963,3.86963,0,0,1,.7519.141c2.51419,1.08087,4.62893.30546,6.57918-1.36283,1.87977-1.5978,3.75953-3.1956,6.20323-3.90051a8.30212,8.30212,0,0,1,1.36283-.235c.35245,1.90326.68141,3.689,1.05736,5.6158.282-.25847.56393-.49344.8224-.75191a34.06812,34.06812,0,0,1,6.57918-5.26334,5.60149,5.60149,0,0,0,1.80927-2.4672c.91639-1.87976,1.69179-3.85351,2.53769-5.78027a.662.662,0,0,1,.51693-.376,19.35162,19.35162,0,0,1-.44644,2.32621,4.40855,4.40855,0,0,0,1.01037,4.67591c.77541.86939,1.69179,1.6448,2.37321,2.58468.84589,1.19835,1.48031,2.56118,2.25572,3.80653a6.68954,6.68954,0,0,0,1.24534,1.5508c2.4202,2.04425,3.9475,4.72292,5.49831,7.40158.8694,1.50381,1.6448,3.05462,2.46719,4.60543l-.35245.282a19.07678,19.07678,0,0,1-2.70216-2.42019,11.30291,11.30291,0,0,0-6.88464-4.37046,8.52336,8.52336,0,0,0-4.206.30546c-5.21634,1.80928-10.50318,3.07812-16.072,2.74916-3.28959-.188-6.55568-.58743-9.46932-2.27922-2.63167-1.52731-5.21635-3.10161-7.73053-4.7934a4.16845,4.16845,0,0,1-1.85627-3.1251,2.27794,2.27794,0,0,1,1.36283-2.4437c3.26609-1.83277,6.46169-3.783,9.65729-5.73328a12.29865,12.29865,0,0,0,2.18523-1.78578,17.74117,17.74117,0,0,1,8.99937-4.51143,11.79637,11.79637,0,0,0,5.49832-2.44369c.30546-.282.72841-.423,1.05736-.91639-.49344.11749-1.08086.07049-1.45681.35246a18.7953,18.7953,0,0,1-6.81415,2.67866c-1.87977.44644-3.689,1.15136-5.45132,1.69179a12.02458,12.02458,0,0,1,1.08087-1.26884c2.67866-2.3967,4.60542-5.40433,6.67316-8.29446A46.96541,46.96541,0,0,1,47.01764,19.50093,41.42937,41.42937,0,0,1,60.176,13.74415a22.55952,22.55952,0,0,1,10.10373.21148,6.25544,6.25544,0,0,0,4.72291-.75191c4.347-2.3967,8.71742-4.7464,13.06437-7.1431,1.31584-.72841,2.56118-1.6213,3.83-2.4202C93.63581,2.51256,95.37459,1.4082,97.11338.28034a1.53425,1.53425,0,0,1,2.09124.329,9.35479,9.35479,0,0,1,2.58468,4.88739c.49344,2.20872,1.19835,4.37045,1.62129,6.57917a12.38221,12.38221,0,0,1-2.04425,9.25785,23.7811,23.7811,0,0,0-3.75953,8.88189,15.15193,15.15193,0,0,0-.11748,3.26609c.047,1.01037.63442,1.31583,1.52731.91638a14.20754,14.20754,0,0,0,2.98413-1.50381c.46994-.35246.58742-1.19835.8224-1.83277.25846-.68142.49344-1.38633.72841-2.09124l2.18522,1.33933c.39945.235.8224.65792,1.19835.63442,1.05737-.07049,1.38633.54044,1.52731,1.36283.8459,4.76991-.98688,8.52944-4.55843,11.46657-2.65516,2.18523-5.54531,4.065-8.24747,6.17973a21.4351,21.4351,0,0,0-7.1901,10.73816,10.25507,10.25507,0,0,0-.0235,6.90813c.7989,2.11474,1.57431,4.22947,2.34971,6.34421.235.65791.39945,1.36282.58742,2.02075C91.2156,76.05833,91.07462,76.12882,90.95713,76.19932ZM78.05724,13.86161c-1.85627,1.71529-3.689,3.36008-6.53218,3.26609l2.67866,2.32621C76.45944,18.20857,76.50644,15.5534,78.05724,13.86161Zm26.10524,15.90751-.282.141v2.09124c.46994-.37595,1.03387-.65792.98688-.7989A6.236,6.236,0,0,0,104.16248,29.76912Z"/><path class="cls-1" d="M71.9715,105.19469c1.45682-4.93438.39946-9.61029-2.3262-14.26272,4.51143,2.67867,6.79064,7.16661,6.25022,12.7824a42.87179,42.87179,0,0,1-5.12236,16.94139,24.41481,24.41481,0,0,1-2.11474,3.05462c1.05737-5.23985,1.15136-10.38571-.63442-15.34358-3.52456,3.2191-6.83765,6.62617-10.55018,9.49282-3.71254,2.89013-7.707,5.49831-12.64142,6.08574,2.86664-2.46719,5.78028-4.88739,8.05949-8.36495-.84589,0-1.38632-.047-1.90326,0a56.41041,56.41041,0,0,0-6.64967.70491,32.9669,32.9669,0,0,0-6.64967,2.20873c-2.81965,1.26885-5.45132,2.89014-8.224,4.22947a31.07513,31.07513,0,0,1-3.61855,1.19835c-.07049-.11749-.11748-.21148-.188-.329a10.58708,10.58708,0,0,1,1.24535-1.05736,19.65591,19.65591,0,0,0,6.01525-6.79066,1.09464,1.09464,0,0,0-.329-1.05737c-5.85077-2.44369-11.70154-3.59505-17.74028-.44644a28.0179,28.0179,0,0,0-8.76441,6.95513,2.06936,2.06936,0,0,1-1.12786.65792c.188-.423.329-.84589.54044-1.24535,5.26334-9.25784,10.26821-18.65666,16.68291-27.1861A63.56386,63.56386,0,0,1,35.90352,79.5359a20.55717,20.55717,0,0,0,8.271-11.39607,7.43761,7.43761,0,0,1-.141,5.52181,17.33667,17.33667,0,0,1-5.68629,8.29446A54.75506,54.75506,0,0,0,26.97463,94.22157c-1.64479,2.3967-2.86664,5.09886-4.39395,7.61305-.98687,1.62129-2.23222,3.07811-3.52456,4.84039,4.67592-1.31583,8.64692.44644,12.73541,1.57431a95.41,95.41,0,0,0,9.53981,2.27922,43.25282,43.25282,0,0,0,8.52944.70491c5.31033-.21147,10.43269-1.10437,14.26271-5.40433a2.98315,2.98315,0,0,0,.8459-2.93713,23.76809,23.76809,0,0,0-3.43057-7.42507,68.38746,68.38746,0,0,0-9.77478-12.148c-.75191-.70491-1.10437-1.01037-1.97376,0a34.44144,34.44144,0,0,1-4.065,3.52456c-2.58468,2.20872-5.23984,4.347-7.73053,6.64967a29.08491,29.08491,0,0,0-2.91364,3.642,19.91579,19.91579,0,0,0,1.95026,1.29234,27.38849,27.38849,0,0,0,13.67529,3.17211c.7519-.047,1.48031-.0235,2.23222,0,.68141.02349.96338-.25847.7989-.91639a17.939,17.939,0,0,0-3.66555-7.754,1.28792,1.28792,0,0,0-1.17485-.094c-1.10436.7754-2.11473,1.69179-3.24259,2.60818,1.01037.7989,1.87976,1.48031,2.77265,2.18522a11.87631,11.87631,0,0,1-7.707-1.22185,28.25952,28.25952,0,0,1,9.53981-6.81415,1.44057,1.44057,0,0,1,1.33933.282,27.98419,27.98419,0,0,1,6.67317,11.79553c.25847,1.01037-.35246,1.52731-1.12786,1.92676-2.44369,1.24534-5.09886,1.36283-7.754,1.45682-5.38083.21148-10.55018-1.03387-15.71953-2.27921a44.27132,44.27132,0,0,0-6.93164-.56393,18.13359,18.13359,0,0,0,1.31584-1.55081c.89289-1.29234,1.78578-2.56118,2.56118-3.924a25.88668,25.88668,0,0,1,8.271-8.97588c1.26884-.8459,2.4437-1.83277,3.71254-2.67867,4.60543-3.00762,6.15623-7.47206,6.22672-12.66491a26.89372,26.89372,0,0,1,.25847-4.3c.25847.70491.56393,1.38632.77541,2.09123.51693,1.80928.89288,3.642,1.45681,5.42783a13.21918,13.21918,0,0,0,3.85352,5.75678A64.82625,64.82625,0,0,1,68.0475,97.44068C69.38683,99.97834,70.63217,102.61,71.9715,105.19469Z"/><path class="cls-1" d="M6.15623,75.001A19.62983,19.62983,0,0,1,7.895,73.8966c3.07812-1.50381,5.35733-4.0415,8.036-6.03875a76.38022,76.38022,0,0,1,7.30759-4.41744,3.93787,3.93787,0,0,1,1.15135-.282c-2.51419,2.84315-4.91089,5.54531-7.26059,8.224,5.33383-.235,10.19772-2.3262,15.1791-4.065,1.73878-.61092,3.54806-1.08086,5.31034-1.62129.11748.16448.21147.329.32895.49344-5.02837,1.90326-8.13,5.5688-9.86876,10.62067,3.31309-1.99725,7.40157-2.51419,9.77477-6.03874.11749.094.235.21147.35246.30545a8.19538,8.19538,0,0,1-1.24534,2.23223c-2.25572,1.97375-4.69942,3.736-6.90814,5.75678a37.08008,37.08008,0,0,0-3.642,4.22947c-1.15136,1.43332-2.11474,3.00762-3.36009,4.32346a6.25876,6.25876,0,0,1-4.065,1.80927,11.483,11.483,0,0,0,4.18248-6.17972,2.48844,2.48844,0,0,0-.235-.282,44.84316,44.84316,0,0,0-4.37045,3.1486c-2.84314,2.63168-5.5688,5.38084-8.29446,8.083-1.57431,1.57431-3.10162,3.1956-4.55843,4.88739,4.44094-.8224,8.01249-3.47757,11.88951-5.47482a2.11825,2.11825,0,0,0,.235.21148,6.87554,6.87554,0,0,1-.72841,1.36282c-4.018,4.62893-8.036,9.28134-12.148,13.81627A27.71409,27.71409,0,0,1,0,113.0662c1.6213-3.61854,2.96063-7.35458,6.06224-10.29171C3.736,102.281,1.97375,102.986.11749,103.90235A30.14906,30.14906,0,0,1,10.3857,89.0992C7.26059,89.31067,4.394,90.885.93988,90.48552c.329-.42294.46994-.75191.72841-.89288,5.5923-3.45407,9.86877-8.271,13.86327-13.36983.235-.30546.51693-.58743.7754-.86939.21148-.25847.423-.51694.65792-.7989-3.59505.25847-7.11961.51694-10.64417.75191A1.9422,1.9422,0,0,1,6.15623,75.001Zm19.26759-1.17486c-.07049-.11748-.16448-.21147-.235-.329-1.5743,1.05736-3.38358,1.85626-4.67591,3.1956-2.4437,2.53768-4.60543,5.35733-7.02563,8.24747a30.89834,30.89834,0,0,0,8.0125-3.736C23.9905,79.41841,24.41345,76.43429,25.42382,73.82611Z"/><path class="cls-1" d="M84.58943,106.534c-.75191-5.49831-1.48031-10.99662-2.23222-16.47144-.75191-5.52181-3.2191-10.4562-5.5923-15.43757.11748-.07049.235-.11749.376-.188,1.6448,1.5743,3.36008,3.1251,4.95789,4.7699,2.3262,2.42019,4.69941,4.84039,6.79065,7.44857a22.25707,22.25707,0,0,1,5.35732,15.24959c0,.188-.0235.376-.07049.93988-2.3732-5.00487-4.159-9.96275-8.41194-13.79278,0,.56393-.0235.8224,0,1.10437.65791,4.93438,1.48031,9.84527,1.92676,14.77965.46994,4.95788,1.22185,9.98625-.30546,14.92064a17.93711,17.93711,0,0,1-1.69179,3.689c-.58743-4.8639-.235-9.86877-3.971-14.19223-1.15136,5.6628-2.84315,10.78515-7.63655,14.54468,3.9945-9.09336,6.86115-18.04574,4.347-27.86751,2.3732,3.26609,3.2191,7.37807,5.6158,10.62067A4.44656,4.44656,0,0,0,84.58943,106.534Z"/><path class="cls-1" d="M68.96388,80.73425c.54043-2.46719.98688-4.72291,1.50381-6.95513.96338-4.22947,2.02075-8.412,2.93714-12.66492.30545-1.38632.21147-2.84314.49343-4.3a42.62554,42.62554,0,0,1,.329,4.253c-.094,5.5923-.35245,11.16111-.376,16.7534A17.82719,17.82719,0,0,0,76.69441,87.008c.70492,1.17485,1.45682,2.30271,2.32621,3.689a4.87354,4.87354,0,0,1-1.5978-.282c-2.84314-1.55081-5.59229-3.28959-8.50594-4.67591-4.018-1.92676-6.76715-5.12236-9.23434-8.59993a21.48931,21.48931,0,0,1-1.55081-3.12511c-1.22185-2.51418-2.44369-5.02837-3.75953-7.754a22.24236,22.24236,0,0,1,1.6683,1.5978c2.60817,2.96063,5.19285,5.94476,7.82452,8.88189a32.35271,32.35271,0,0,0,3.31308,3.1486A8.97477,8.97477,0,0,0,68.96388,80.73425Z"/></svg>